<?xml version="1.0" encoding="UTF-8"?>
<svg version="1.1" xmlns="http://www.w3.org/2000/svg" width="256" height="256">
<path d="M0 0 C1.134375 0.020625 2.26875 0.04125 3.4375 0.0625 C5.18009474 4.59818985 6.88747209 9.14520472 8.56445312 13.70556641 C9.13843385 15.25512176 9.72025271 16.8018003 10.31054688 18.34521484 C14.52632635 29.40805111 17.44282891 39.63002698 14.91015625 51.54296875 C13.52974732 58.90134691 15.17048055 63.55003637 18.4375 70 C18.83960693 70.82685303 19.24171387 71.65370605 19.65600586 72.50561523 C21.63297983 76.54902076 23.68171029 80.54554538 25.81640625 84.5078125 C26.18443359 85.20398682 26.55246094 85.90016113 26.93164062 86.61743164 C27.61848759 87.90809494 28.32294209 89.18962244 29.04882812 90.45874023 C32.38025549 96.7204952 32.39276595 102.51089758 30.56420898 109.30932617 C29.4039882 112.8601379 28.16248137 116.36838285 26.875 119.875 C26.00847826 122.25251104 25.15253204 124.63391041 24.30859375 127.01953125 C23.92630615 128.06085205 23.54401855 129.10217285 23.15014648 130.17504883 C22.3764445 133.30988042 22.46878159 135.00919766 23.4375 138.0625 C24.41376595 139.6430232 25.39539286 141.22090628 26.421875 142.76928711 C35.53826439 156.83050378 37.89076569 174.62844799 39.4375 191.0625 C40.42363281 191.14886719 41.40976563 191.23523438 42.42578125 191.32421875 C52.17592697 192.25491448 61.79812693 193.70366686 71.4375 195.4375 C72.56969971 195.63432373 73.70189941 195.83114746 74.8684082 196.03393555 C87.58014946 198.38740761 97.41198923 202.12664278 105.4375 212.625 C108.70470373 218.28446138 108.24180862 224.76591254 107.4375 231.0625 C104.27497845 238.44171695 97.03662331 242.53340581 89.9375 245.6875 C68.39146339 254.0799637 44.23546303 256.2035088 21.29980469 256.22363281 C19.91366955 256.22827359 18.52753567 256.23329989 17.1414032 256.23867798 C13.40769585 256.25167983 9.67400636 256.25822237 5.94027996 256.26268864 C3.59881801 256.2656383 1.25736074 256.2697464 -1.08409882 256.27419281 C-8.43585631 256.28783343 -15.78760285 256.29751772 -23.13937211 256.3013947 C-31.57859788 256.30587193 -40.01766141 256.32341878 -48.45683789 256.3523953 C-55.01350642 256.37411444 -61.57012962 256.38410435 -68.12683368 256.38543582 C-72.02786967 256.38647623 -75.92875247 256.39221949 -79.82975006 256.41025543 C-83.50381551 256.42691539 -87.17761544 256.42880636 -90.85170555 256.42011642 C-92.81563145 256.4189975 -94.77954927 256.4325739 -96.74342346 256.4468689 C-114.94330467 256.36295967 -127.98350765 252.35811198 -141.5625 240.0625 C-147.83941816 233.56490894 -149.06873582 229.61912329 -148.94921875 220.609375 C-148.22353997 213.9536545 -145.07057473 211.16863968 -140.125 207.015625 C-120.50787732 192.52075102 -93.94567308 191.74162258 -70.5625 189.0625 C-70.25546143 188.10472656 -69.94842285 187.14695313 -69.63208008 186.16015625 C-68.47819666 182.5707649 -67.30990712 178.98619532 -66.13745117 175.40283203 C-65.63422625 173.85819096 -65.13479509 172.31230811 -64.6394043 170.76513672 C-57.89371957 149.71968729 -57.89371957 149.71968729 -50.5625 144.8125 C-47.45132302 142.67983836 -44.49158839 140.44238432 -41.5625 138.0625 C-42.20058594 137.23105469 -42.83867188 136.39960938 -43.49609375 135.54296875 C-44.33094067 134.44547336 -45.16556447 133.34780821 -46 132.25 C-46.42087891 131.70279297 -46.84175781 131.15558594 -47.27539062 130.59179688 C-50.53278401 126.2920376 -52.04899816 122.97524917 -51.96875 117.48828125 C-50.71422168 109.99729962 -45.64287442 103.18265814 -41.75 96.8125 C-38.19560929 90.76064092 -37.48296332 86.81476005 -37.62890625 79.9296875 C-37.83403086 67.92306014 -37.83403086 67.92306014 -34.5625 63.0625 C-32.66422429 61.60080007 -30.74529444 60.16574115 -28.8125 58.75 C-24.85438886 55.89290659 -24.85438886 55.89290659 -23.06640625 51.6171875 C-23.38679166 49.02977117 -23.9294965 46.59060656 -24.5625 44.0625 C-26.65898062 28.13436066 -13.44036579 13.25075642 -4.5625 1.0625 C-3.5625 0.0625 -3.5625 0.0625 0 0 Z " fill="#4B0558" transform="translate(148.5625,-0.0625)"/>
<path d="M0 0 C0.99 0 1.98 0 3 0 C5.53068184 7.59204553 5.52813006 13.94874445 3.4375 21.62890625 C1.94951584 29.69324896 4.36264233 34.62917828 8.0625 41.625 C8.56112549 42.59832275 9.05975098 43.57164551 9.57348633 44.57446289 C11.74125861 48.78438513 13.95443736 52.96216656 16.2890625 57.08203125 C16.91554687 58.18933594 17.54203125 59.29664063 18.1875 60.4375 C19.01314453 61.82775391 19.01314453 61.82775391 19.85546875 63.24609375 C22.09893112 68.6441858 21.15478291 73.45712958 19.25 78.8125 C18.88777344 79.83988281 18.52554688 80.86726563 18.15234375 81.92578125 C16.77760769 85.59329745 15.34358022 89.23048553 13.83203125 92.84375 C12.0493516 97.46365219 11.11953023 102.07101503 12 107 C13.2622136 109.82456269 14.71277574 112.43758356 16.296875 115.09375 C20.46264394 122.20230983 22.95132172 128.7345258 24.6875 136.8125 C24.89955078 137.73353516 25.11160156 138.65457031 25.33007812 139.60351562 C26.75955364 146.04742892 27.5505184 152.41744972 28 159 C25.15916359 160.42041821 23.14522722 160.31452272 20 160 C17.875 158.125 17.875 158.125 16 156 C10.74258097 152.60107637 4.14270039 153.67228842 -1.875 153.6875 C-3.14214844 153.67138672 -4.40929687 153.65527344 -5.71484375 153.63867188 C-6.94074219 153.63802734 -8.16664062 153.63738281 -9.4296875 153.63671875 C-10.54585449 153.63373779 -11.66202148 153.63075684 -12.81201172 153.62768555 C-16.42693387 154.04986017 -18.82915663 155.26388364 -22 157 C-29.50109144 157.75560445 -38.39904539 154.3004773 -45 151 C-43.60289336 144.31433357 -41.87957657 137.82169146 -39.8125 131.3125 C-39.54630859 130.40177734 -39.28011719 129.49105469 -39.00585938 128.55273438 C-36.51581611 120.77770133 -32.85042383 117.35863659 -26.015625 113.171875 C-25.10296875 112.70265625 -24.1903125 112.2334375 -23.25 111.75 C-20.3770462 110.25734803 -17.69801225 108.79867483 -15 107 C-15.39154519 101.78266038 -18.15463876 99.03284506 -21.5 95.3125 C-27.91763024 88.03002539 -27.91763024 88.03002539 -28.22436523 84.19433594 C-27.97717176 80.67498944 -27.1982381 78.90084818 -25.41015625 75.890625 C-24.87326172 74.97152344 -24.33636719 74.05242187 -23.78320312 73.10546875 C-22.93145508 71.69201172 -22.93145508 71.69201172 -22.0625 70.25 C-21.49853516 69.29222656 -20.93457031 68.33445312 -20.35351562 67.34765625 C-19.3134305 65.58137995 -18.26784903 63.81832074 -17.21508789 62.05957031 C-15.23819048 58.70873517 -14.89608822 56.87777684 -14.9296875 52.984375 C-14.919375 51.98019531 -14.9090625 50.97601563 -14.8984375 49.94140625 C-14.88292756 47.82946958 -14.89039536 45.71722775 -14.921875 43.60546875 C-14.7868693 36.05479257 -14.7868693 36.05479257 -12.45410156 32.92773438 C-8.00251542 29 -8.00251542 29 -5 29 C-5 28.34 -5 27.68 -5 27 C-3.68799596 25.64567325 -2.35368596 24.31266518 -1 23 C1.26963799 18.46072402 -0.01836872 12.7854525 -1 8 C-1.0777346 5.66796188 -1.08967728 3.33160941 -1 1 C-0.67 0.67 -0.34 0.34 0 0 Z " fill="#9A2686" transform="translate(134,35)"/>
<path d="M0 0 C0.07476562 0.6290625 0.14953125 1.258125 0.2265625 1.90625 C1.53514538 10.42486798 5.2376203 16.48727023 12.140625 21.7890625 C39.74844247 39.76894363 80.53425965 42.53033258 112.21362305 36.15698242 C123.13449255 33.65361557 133.75963851 30.57080513 144 26 C144.68126953 25.69835937 145.36253906 25.39671875 146.06445312 25.0859375 C155.74937494 20.73435619 164.93877598 16.09183603 171 7 C178.85391694 7.65449308 185.52338095 10.46443851 190.921875 16.3671875 C192 18 192 18 192.75 21.4375 C191.70322388 26.40968658 190.00920404 28.88891514 186 32 C155.22378672 49.9308707 112.93422048 46.46149133 78.78967285 46.3225708 C74.32636482 46.30916186 69.86315914 46.31431155 65.39984035 46.31969929 C61.02307333 46.32308274 56.64636519 46.31632833 52.26960945 46.30657005 C50.21567152 46.30279372 48.16172695 46.30153728 46.10778618 46.3031559 C26.32748436 46.30576465 6.70022397 44.94666022 -12.875 42.0625 C-14.01839844 41.90587891 -15.16179688 41.74925781 -16.33984375 41.58789062 C-34.91802879 38.91101092 -34.91802879 38.91101092 -41.5 32.5 C-42.3146875 31.7265625 -43.129375 30.953125 -43.96875 30.15625 C-46.35248725 27.62582122 -47.84348924 25.74777364 -48.5625 22.3125 C-47.68949319 17.1714599 -44.93637327 14.3019145 -41 11 C-37.46303752 8.93632866 -33.8347911 7.42170522 -30 6 C-29.2575 5.71511719 -28.515 5.43023437 -27.75 5.13671875 C-18.83462485 1.94095008 -9.5088281 -0.55934283 0 0 Z " fill="#9B2686" transform="translate(56,202)"/>
<path d="M0 0 C0.66 0 1.32 0 2 0 C3.19412033 3.42855902 4.34992669 6.86894072 5.5 10.3125 C5.83386719 11.26962891 6.16773438 12.22675781 6.51171875 13.21289062 C9.31112588 21.69680815 9.90307223 29.25394639 8 38 C6.02022666 50.00110026 12.63964265 59.99904894 18.27734375 70.109375 C18.82068359 71.09309082 18.82068359 71.09309082 19.375 72.09667969 C20.37498168 73.88800716 21.40339388 75.66337889 22.43359375 77.4375 C26.06489194 85.69621308 24.9892775 91.23432192 21.88867188 99.59375 C21.45103516 100.7178125 21.01339844 101.841875 20.5625 103 C16.05824802 113.68020221 16.05824802 113.68020221 16 125 C17.24705654 127.66431131 18.90529318 129.93463756 20.625 132.3125 C29.3371186 145.55424144 31.29403178 162.49294057 33 178 C30.58525383 178.53160457 28.16891893 179.05054766 25.75 179.5625 C25.06808594 179.71396484 24.38617188 179.86542969 23.68359375 180.02148438 C20.18230962 180.75233495 17.39701827 181.32203546 14 180 C14.66 180 15.32 180 16 180 C15.23165793 175.90807807 14.4498217 171.81901862 13.65625 167.73193359 C13.38900084 166.34589981 13.12522991 164.95919007 12.86523438 163.57177734 C10.96733392 153.4618076 8.96785189 143.55973385 2.8125 135.0625 C-0.70482931 130.15604823 -1.68689879 126.02212639 -1 120 C0.77333138 112.79641555 3.31596669 105.86369742 6.16796875 99.0234375 C8.0848349 94.36176301 9.06371202 90.0460597 7.3430481 85.1187439 C6.40171307 83.0923608 5.38212721 81.13176246 4.31640625 79.16796875 C3.94144516 78.45014725 3.56648407 77.73232574 3.18016052 76.99275208 C1.98756252 74.7170391 0.7755264 72.45237808 -0.4375 70.1875 C-1.24936369 68.64717772 -2.05992439 67.10616791 -2.86914062 65.56445312 C-4.34670753 62.7537094 -5.83145263 59.94705341 -7.32592773 57.14526367 C-10.42509161 51.32252367 -10.57258134 47.00896819 -9 40.5625 C-7.40732207 33.90939859 -7.8825292 27.7048248 -9 21 C-9.99 21.33 -10.98 21.66 -12 22 C-12.33 23.65 -12.66 25.3 -13 27 C-13.33 27 -13.66 27 -14 27 C-14.76384122 20.88927026 -12.32680364 17.79218144 -9 13 C-7.58232446 10.85483306 -6.16570239 8.70896963 -4.75 6.5625 C-1.13857678 1.13857678 -1.13857678 1.13857678 0 0 Z " fill="#620772" transform="translate(146,14)"/>
<path d="M0 0 C-0.165 0.680625 -0.33 1.36125 -0.5 2.0625 C-1.33385068 6.96137277 -1.78047526 10.54598959 0.625 15.02734375 C3.34128657 18.42716955 5.30440095 19.50696693 9.3125 21.125 C9.91698975 21.37378906 10.52147949 21.62257812 11.14428711 21.87890625 C15.69631984 23.68266309 20.30460707 24.87897189 25.0625 26 C31.15387801 27.5023295 33.75427244 28.66773329 37 34 C41.84191251 37.22794167 47.47563565 36.37189153 53.14135742 36.37060547 C55.29492118 36.37496442 57.44641014 36.41124867 59.59960938 36.44921875 C60.9791597 36.45509033 62.35871971 36.45905744 63.73828125 36.4609375 C64.98649658 36.46915527 66.23471191 36.47737305 67.52075195 36.48583984 C71.61782532 35.91372729 73.72622939 34.46129984 77 32 C80.77827233 30.4706993 84.67306945 29.58725392 88.625 28.625 C101.38195588 25.92616156 101.38195588 25.92616156 112 19 C113.2062252 15.38132441 113.10816918 12.07493749 113.0625 8.3125 C113.05573242 7.2596582 113.05573242 7.2596582 113.04882812 6.18554688 C113.03706927 4.45699462 113.01913454 2.72848635 113 1 C137.06442703 2.77370463 137.06442703 2.77370463 146 6 C146.80050781 6.28359375 147.60101563 6.5671875 148.42578125 6.859375 C150.29480624 7.54371576 152.14958891 8.26681825 154 9 C152.35743545 10.6955505 150.68691606 12.34906082 149 14 C148.41476563 14.60457031 147.82953125 15.20914063 147.2265625 15.83203125 C133.25231404 29.40472084 111.77154145 35.73348568 93.09643555 39.55761719 C91.67485085 39.85759523 90.25930874 40.18746565 88.85083008 40.54394531 C80.77541149 42.45482507 72.68108172 42.31052901 64.4375 42.25 C63.67888672 42.24656586 62.92027344 42.24313171 62.13867188 42.23959351 C38.82128302 42.11547966 6.95033329 40.21264836 -11 23 C-19.72322059 14.03350234 -19.72322059 14.03350234 -20.1953125 8.859375 C-20.13020833 6.90625 -20.06510417 4.953125 -20 3 C-20.99 2.67 -21.98 2.34 -23 2 C-20.47980028 1.66114962 -17.95901484 1.32879665 -15.4375 1 C-14.73302734 0.90460938 -14.02855469 0.80921875 -13.30273438 0.7109375 C-8.82632145 0.13333583 -4.51338762 -0.09489383 0 0 Z " fill="#620772" transform="translate(76,199)"/>
<path d="M0 0 C1.87171875 -0.00386719 1.87171875 -0.00386719 3.78125 -0.0078125 C5.74578125 0.00378906 5.74578125 0.00378906 7.75 0.015625 C9.0596875 0.00789062 10.369375 0.00015625 11.71875 -0.0078125 C12.9665625 -0.00523437 14.214375 -0.00265625 15.5 0 C16.64984375 0.00225586 17.7996875 0.00451172 18.984375 0.00683594 C21.75 0.265625 21.75 0.265625 23.75 2.265625 C23.99291992 5.03125 23.99291992 5.03125 23.98046875 8.515625 C23.97853516 9.7634375 23.97660156 11.01125 23.97460938 12.296875 C23.95624023 14.26140625 23.95624023 14.26140625 23.9375 16.265625 C23.93685547 17.5753125 23.93621094 18.885 23.93554688 20.234375 C23.89021767 29.98518965 23.89021767 29.98518965 22.75 32.265625 C18.65661348 32.31501615 14.56334202 32.35134001 10.46972656 32.37548828 C9.07679219 32.38555377 7.68387898 32.39920734 6.29101562 32.41650391 C4.2904564 32.4407272 2.28974385 32.45103314 0.2890625 32.4609375 C-0.91540527 32.47141113 -2.11987305 32.48188477 -3.36083984 32.49267578 C-6.25 32.265625 -6.25 32.265625 -8.25 30.265625 C-8.50878906 27.5 -8.50878906 27.5 -8.515625 24.015625 C-8.51820312 22.7678125 -8.52078125 21.52 -8.5234375 20.234375 C-8.51570313 18.9246875 -8.50796875 17.615 -8.5 16.265625 C-8.50773437 14.9559375 -8.51546875 13.64625 -8.5234375 12.296875 C-8.52085938 11.0490625 -8.51828125 9.80125 -8.515625 8.515625 C-8.51336914 7.36578125 -8.51111328 6.2159375 -8.50878906 5.03125 C-7.98907396 -0.52283747 -4.76672627 0.00935176 0 0 Z " fill="#4A0557" transform="translate(124.25,195.734375)"/>
<path d="M0 0 C1.9375 0.75 1.9375 0.75 3.9375 2.75 C4.54806087 4.77213278 5.08113995 6.81827978 5.5625 8.875 C5.95308594 10.51855469 5.95308594 10.51855469 6.3515625 12.1953125 C6.64160156 13.45988281 6.64160156 13.45988281 6.9375 14.75 C9.5775 15.41 12.2175 16.07 14.9375 16.75 C15.6875 19.5 15.6875 19.5 15.9375 22.75 C13.91668295 25.41747851 11.60032929 26.99083622 8.875 28.9375 C5.49641515 31.6591378 4.59911678 34.76444523 3.48046875 38.859375 C2.9375 40.75 2.9375 40.75 1.9375 41.75 C-0.40194736 41.46269945 -2.7364143 41.13063221 -5.0625 40.75 C-5.28164063 40.08613281 -5.50078125 39.42226562 -5.7265625 38.73828125 C-8.15985583 31.96264739 -10.45800635 28.05224682 -17.0625 24.75 C-17.875 22.4375 -17.875 22.4375 -18.0625 19.75 C-17 17.5625 -17 17.5625 -15.0625 15.75 C-14.07765625 15.50636719 -13.0928125 15.26273438 -12.078125 15.01171875 C-8.83198268 14.04145818 -8.83198268 14.04145818 -7.70703125 11 C-7.43246094 9.9275 -7.15789063 8.855 -6.875 7.75 C-4.68554108 -0.56794437 -4.68554108 -0.56794437 0 0 Z " fill="#4D095A" transform="translate(45.0625,83.25)"/>
<path d="M0 0 C1.9375 0.75 1.9375 0.75 3.9375 2.75 C4.54806087 4.77213278 5.08113995 6.81827978 5.5625 8.875 C5.95308594 10.51855469 5.95308594 10.51855469 6.3515625 12.1953125 C6.64160156 13.45988281 6.64160156 13.45988281 6.9375 14.75 C9.5775 15.41 12.2175 16.07 14.9375 16.75 C15.6875 19.5 15.6875 19.5 15.9375 22.75 C13.91668295 25.41747851 11.60032929 26.99083622 8.875 28.9375 C5.49641515 31.6591378 4.59911678 34.76444523 3.48046875 38.859375 C2.9375 40.75 2.9375 40.75 1.9375 41.75 C-0.40194736 41.46269945 -2.7364143 41.13063221 -5.0625 40.75 C-5.28164062 40.08613281 -5.50078125 39.42226562 -5.7265625 38.73828125 C-8.15985583 31.96264739 -10.45800635 28.05224682 -17.0625 24.75 C-17.875 22.4375 -17.875 22.4375 -18.0625 19.75 C-17 17.5625 -17 17.5625 -15.0625 15.75 C-14.07765625 15.50636719 -13.0928125 15.26273438 -12.078125 15.01171875 C-8.83198268 14.04145818 -8.83198268 14.04145818 -7.70703125 11 C-7.43246094 9.9275 -7.15789062 8.855 -6.875 7.75 C-4.68554108 -0.56794437 -4.68554108 -0.56794437 0 0 Z " fill="#4D095A" transform="translate(213.0625,51.25)"/>
<path d="M0 0 C1.9375 0.75 1.9375 0.75 3.9375 2.75 C4.54806087 4.77213278 5.08113995 6.81827978 5.5625 8.875 C5.95308594 10.51855469 5.95308594 10.51855469 6.3515625 12.1953125 C6.64160156 13.45988281 6.64160156 13.45988281 6.9375 14.75 C9.5775 15.41 12.2175 16.07 14.9375 16.75 C15.6875 19.5 15.6875 19.5 15.9375 22.75 C13.91668295 25.41747851 11.60032929 26.99083622 8.875 28.9375 C5.49641515 31.6591378 4.59911678 34.76444523 3.48046875 38.859375 C2.9375 40.75 2.9375 40.75 1.9375 41.75 C-0.40194736 41.46269945 -2.7364143 41.13063221 -5.0625 40.75 C-5.28164062 40.08613281 -5.50078125 39.42226563 -5.7265625 38.73828125 C-8.15985583 31.96264739 -10.45800635 28.05224682 -17.0625 24.75 C-17.875 22.4375 -17.875 22.4375 -18.0625 19.75 C-17 17.5625 -17 17.5625 -15.0625 15.75 C-14.07765625 15.50636719 -13.0928125 15.26273438 -12.078125 15.01171875 C-8.83198268 14.04145818 -8.83198268 14.04145818 -7.70703125 11 C-7.43246094 9.9275 -7.15789062 8.855 -6.875 7.75 C-4.68554108 -0.56794437 -4.68554108 -0.56794437 0 0 Z " fill="#4D095A" transform="translate(89.0625,11.25)"/>
<path d="M0 0 C7.79710106 0.52861702 14.56942713 2.57528675 22 5 C22 11.6 22 18.2 22 25 C13.48365108 24.61867094 4.01561736 22.97863318 -2.8515625 17.53125 C-4.93637841 14.75149545 -4.37848307 12.35227864 -4 9 C-2.86017081 5.89630926 -1.49663552 2.94650119 0 0 Z " fill="#E5CCE1" transform="translate(86,194)"/>
<path d="M0 0 C1.5912689 4.873261 2.21192221 8.80790596 2 14 C-6.71486965 18.13736236 -15.25824188 22 -25 22 C-25 15.73 -25 9.46 -25 3 C-16.41533155 1.0922959 -8.71948457 -0.15570508 0 0 Z " fill="#E5CCE1" transform="translate(181,200)"/>
<path d="M0 0 C1.87171875 -0.00386719 1.87171875 -0.00386719 3.78125 -0.0078125 C5.74578125 0.00378906 5.74578125 0.00378906 7.75 0.015625 C9.0596875 0.00789062 10.369375 0.00015625 11.71875 -0.0078125 C12.9665625 -0.00523437 14.214375 -0.00265625 15.5 0 C16.64984375 0.00225586 17.7996875 0.00451172 18.984375 0.00683594 C21.75 0.265625 21.75 0.265625 23.75 2.265625 C23.99291992 5.03125 23.99291992 5.03125 23.98046875 8.515625 C23.97853516 9.7634375 23.97660156 11.01125 23.97460938 12.296875 C23.95624023 14.26140625 23.95624023 14.26140625 23.9375 16.265625 C23.93685547 17.5753125 23.93621094 18.885 23.93554688 20.234375 C23.89021767 29.98518965 23.89021767 29.98518965 22.75 32.265625 C18.65661348 32.31501615 14.56334202 32.35134001 10.46972656 32.37548828 C9.07679219 32.38555377 7.68387898 32.39920734 6.29101562 32.41650391 C4.2904564 32.4407272 2.28974385 32.45103314 0.2890625 32.4609375 C-0.91540527 32.47141113 -2.11987305 32.48188477 -3.36083984 32.49267578 C-6.25 32.265625 -6.25 32.265625 -8.25 30.265625 C-8.50878906 27.5 -8.50878906 27.5 -8.515625 24.015625 C-8.51820312 22.7678125 -8.52078125 21.52 -8.5234375 20.234375 C-8.51570313 18.9246875 -8.50796875 17.615 -8.5 16.265625 C-8.50773437 14.9559375 -8.51546875 13.64625 -8.5234375 12.296875 C-8.52085938 11.0490625 -8.51828125 9.80125 -8.515625 8.515625 C-8.51336914 7.36578125 -8.51111328 6.2159375 -8.50878906 5.03125 C-7.98907396 -0.52283747 -4.76672627 0.00935176 0 0 Z M-4.25 6.265625 C-4.5594486 8.24935514 -4.5594486 8.24935514 -4.515625 10.51171875 C-4.51820312 11.34896484 -4.52078125 12.18621094 -4.5234375 13.04882812 C-4.51570313 13.92474609 -4.50796875 14.80066406 -4.5 15.703125 C-4.50773437 16.57517578 -4.51546875 17.44722656 -4.5234375 18.34570312 C-4.52085938 19.18423828 -4.51828125 20.02277344 -4.515625 20.88671875 C-4.51336914 21.6542749 -4.51111328 22.42183105 -4.50878906 23.21264648 C-4.3661448 25.57488213 -4.3661448 25.57488213 -2.25 28.265625 C-0.15821058 28.71338103 -0.15821058 28.71338103 2.25 28.62890625 C3.136875 28.62826172 4.02375 28.62761719 4.9375 28.62695312 C5.865625 28.61083984 6.79375 28.59472656 7.75 28.578125 C8.678125 28.58134766 9.60625 28.58457031 10.5625 28.58789062 C15.68612656 28.85262337 15.68612656 28.85262337 19.75 26.265625 C20.02741245 24.03527203 20.02741245 24.03527203 19.9453125 21.4765625 C19.93886719 20.53554687 19.93242187 19.59453125 19.92578125 18.625 C19.90064453 17.14773437 19.90064453 17.14773437 19.875 15.640625 C19.86597656 14.64804688 19.85695312 13.65546875 19.84765625 12.6328125 C19.82404116 10.17684366 19.79110799 7.72135332 19.75 5.265625 C16.09657606 3.43891303 11.77160841 4.08091778 7.75 4.078125 C6.821875 4.06587891 5.89375 4.05363281 4.9375 4.04101562 C3.6071875 4.03811523 3.6071875 4.03811523 2.25 4.03515625 C1.4353125 4.03104736 0.620625 4.02693848 -0.21875 4.02270508 C-2.47697834 4.08051114 -2.47697834 4.08051114 -4.25 6.265625 Z " fill="#AB97A8" transform="translate(124.25,195.734375)"/>
<path d="M0 0 C0.87785156 0.00515625 1.75570312 0.0103125 2.66015625 0.015625 C3.53542969 0.01046875 4.41070312 0.0053125 5.3125 0 C7.72265625 0.265625 7.72265625 0.265625 10.72265625 2.265625 C11.36110907 8.33092683 10.35976995 13.7373637 7.72265625 19.265625 C4.61312246 20.8203919 2.15998864 20.55206937 -1.27734375 20.265625 C-4.71484375 18.765625 -4.71484375 18.765625 -7.27734375 16.265625 C-8.09746961 10.61586909 -7.3256904 7.18987728 -4.27734375 2.265625 C-2.27734375 0.265625 -2.27734375 0.265625 0 0 Z " fill="#C178B4" transform="translate(112.27734375,158.734375)"/>
<path d="M0 0 C0.25 2.3125 0.25 2.3125 0 5 C-3.18820222 8.60405468 -8.45116128 9.8686826 -13 11 C-16.5625 11.1875 -16.5625 11.1875 -19 11 C-19.33 9.02 -19.66 7.04 -20 5 C-13.34657843 0.6336921 -7.87536129 -1.80477029 0 0 Z " fill="#4E0659" transform="translate(144,129)"/>
<path d="M0 0 C4.46671996 1.46027383 6.93001542 3.99610637 9.25 8.0625 C9.125 11 9.125 11 8.25 13.0625 C6.1875 13.9375 6.1875 13.9375 3.25 14.0625 C-0.81639363 11.74251542 -3.35222617 9.27921996 -4.8125 4.8125 C-4.72491976 0.95896952 -3.85353048 0.08758024 0 0 Z " fill="#4E0659" transform="translate(128.75,95.9375)"/>
<path d="M0 0 C2.64 0 5.28 0 8 0 C8 2.64 8 5.28 8 8 C5.36 8 2.72 8 0 8 C0 5.36 0 2.72 0 0 Z " fill="#9D2888" transform="translate(128,208)"/>
</svg>
