<?xml version="1.0" encoding="UTF-8"?>
<svg version="1.1" xmlns="http://www.w3.org/2000/svg" width="512" height="512">
<path d="M0 0 C3.04121519 0.6887973 4.0411599 2.06036848 6.03515625 4.4609375 C7.30836919 7.13966421 8.21731273 9.91364356 9.13671875 12.73046875 C9.41509583 13.55149078 9.6934729 14.37251282 9.98028564 15.21841431 C10.88571783 17.89951883 11.77359168 20.58604052 12.66015625 23.2734375 C13.27943801 25.12725935 13.89939767 26.98085488 14.52001953 28.83422852 C15.77142069 32.57944889 17.01463585 36.32725276 18.25195312 40.07714844 C19.62525219 44.23497697 21.02141594 48.38438534 22.43240356 52.52955627 C23.38394371 55.33177345 24.32242636 58.13822684 25.25701904 60.94613647 C25.89271596 62.84630649 26.54115433 64.74219897 27.18994141 66.63793945 C31.55140741 79.93809576 29.4825967 90.37871314 26.52319336 103.74023438 C26.08993792 105.71291919 25.66981272 107.68847323 25.25 109.6640625 C24.993396 110.82583008 24.73679199 111.98759766 24.47241211 113.18457031 C23.64302607 119.39917705 25.55065513 124.0685896 28.34570312 129.52026367 C28.68561783 130.19907089 29.02553253 130.87787811 29.37574768 131.57725525 C30.49436133 133.8066364 31.62410527 136.03017678 32.75390625 138.25390625 C33.5355474 139.80718035 34.31641995 141.36084144 35.09655762 142.91487122 C37.14751759 146.99589842 39.20769354 151.07219979 41.27020264 155.1473999 C44.57382722 161.67925151 47.86247373 168.21866321 51.15284729 174.75719643 C52.30318088 177.04015906 53.45686707 179.32140118 54.61120605 181.6023407 C55.31571362 182.99813869 56.02018345 184.39395573 56.72460938 185.78979492 C57.20777367 186.74130432 57.20777367 186.74130432 57.70069885 187.71203613 C63.40062165 199.0265842 61.07829483 208.59170688 57.28692627 220.13665771 C56.33970108 222.95719454 55.37556366 225.77157871 54.41015625 228.5859375 C53.78481013 230.4499687 53.1611015 232.31455008 52.5390625 234.1796875 C50.14105791 241.3463135 47.73634191 248.50882022 45.20019531 255.62792969 C44.91512115 256.44292938 44.630047 257.25792908 44.33633423 258.09762573 C43.80406845 259.61803333 43.26116624 261.13477842 42.70541382 262.64675903 C41.19002761 267.01419539 40.68691136 270.0176463 42.03515625 274.4609375 C43.19280952 276.7727344 44.3669468 278.91480105 45.7109375 281.109375 C46.07736862 281.72559723 46.44379974 282.34181946 46.82133484 282.97671509 C47.98796169 284.9352233 49.16709552 286.88580282 50.34765625 288.8359375 C51.51515368 290.78023345 52.67987392 292.72613155 53.84184265 294.67373657 C54.56274088 295.88037439 55.28709893 297.08495526 56.01570129 298.28695679 C57.04455782 299.99945664 58.04059938 301.72833926 59.03515625 303.4609375 C59.70796631 304.59305664 60.38077637 305.72517578 61.07397461 306.89160156 C64.2067462 313.29529264 65.1522564 320.53640036 66.48828125 327.484375 C66.79549059 329.03775674 67.1036732 330.59094629 67.41278076 332.14395142 C68.21880054 336.20831899 69.01060061 340.27533285 69.79968262 344.34301758 C70.44828016 347.67358308 71.10702523 351.00210328 71.76628494 354.33057213 C72.55191516 358.29785814 73.33331834 362.26597129 74.11328125 366.234375 C74.26224098 366.99202526 74.41120071 367.74967552 74.56467438 368.53028488 C74.98320324 370.66477628 75.39889304 372.79979782 75.81347656 374.93505859 C76.16844208 376.75751602 76.16844208 376.75751602 76.53057861 378.61679077 C77.03515625 381.4609375 77.03515625 381.4609375 77.03515625 383.4609375 C77.77564209 383.5026709 78.51612793 383.5444043 79.27905273 383.58740234 C88.66223629 384.20361141 97.83508336 385.5285072 107.09765625 387.0859375 C107.87840515 387.21621338 108.65915405 387.34648926 109.46356201 387.48071289 C185.54899205 400.28378213 185.54899205 400.28378213 208.03515625 427.4609375 C214.54510831 437.28268561 215.65776571 447.83425845 213.4921875 459.34765625 C208.96880452 472.53554749 196.92624634 480.54411779 185.01757812 486.46386719 C156.53479752 500.15499218 124.36572034 504.54851519 93.28515625 508.1484375 C92.41062805 508.25126038 91.53609985 508.35408325 90.6350708 508.46002197 C62.14450863 511.76958236 33.77659973 512.78045903 5.12576723 512.76252007 C1.63866851 512.76142494 -1.84841308 512.766397 -5.33550799 512.7711255 C-13.59689556 512.78210146 -21.85823764 512.78272767 -30.11962891 512.77661133 C-38.50773156 512.77059439 -46.89566551 512.78285249 -55.28373945 512.8041814 C-62.60470048 512.82207946 -69.92560924 512.82775515 -77.24659121 512.82454365 C-81.5662088 512.82277327 -85.88570642 512.82491948 -90.20530319 512.83925819 C-246.15096068 513.31232091 -246.15096068 513.31232091 -287.83984375 474.0234375 C-296.06779728 465.22327617 -298.59018133 456.30892847 -298.265625 444.4375 C-297.39858336 432.97453395 -291.09721532 426.12785393 -282.90625 418.55859375 C-246.16004347 387.92517772 -186.42383262 385.76463518 -140.96484375 380.4609375 C-140.67305237 379.57668091 -140.38126099 378.69242432 -140.08062744 377.78137207 C-137.32159859 369.42297929 -134.55613488 361.06673956 -131.78445816 352.71253204 C-130.35993108 348.41813189 -128.93763228 344.12302109 -127.52050781 339.82617188 C-126.15123396 335.67469078 -124.77600024 331.52522708 -123.39672089 327.37705994 C-122.8731666 325.79904185 -122.35171492 324.22032445 -121.83246613 322.6408844 C-115.62146391 303.75898089 -109.05353948 294.8771005 -91.40234375 284.9609375 C-89.7462207 284.01347656 -89.7462207 284.01347656 -88.05664062 283.046875 C-85.36465759 281.50859898 -82.66754931 279.9802686 -79.96484375 278.4609375 C-83.58031687 272.78579388 -87.78490258 267.71240924 -92.09960938 262.55859375 C-99.02790037 254.16703476 -103.63655122 247.41796009 -103.4765625 236.21875 C-102.47270774 228.84693108 -98.64452876 222.79929602 -94.96484375 216.4609375 C-94.41828125 215.51089844 -93.87171875 214.56085938 -93.30859375 213.58203125 C-90.34660456 208.4440193 -87.35503405 203.32498441 -84.33203125 198.22265625 C-83.77402832 197.24965576 -83.21602539 196.27665527 -82.64111328 195.27416992 C-80.96484375 192.4609375 -80.96484375 192.4609375 -79.22216797 190.0637207 C-72.96351643 180.77217299 -74.21371231 170.03052261 -74.33984375 159.2734375 C-74.36400014 156.29084805 -74.37902867 153.30926646 -74.37026978 150.32658386 C-74.365741 148.48221529 -74.3800049 146.63766653 -74.41659546 144.7936554 C-74.41360368 137.62308847 -72.58758687 132.4210262 -67.80859375 127.02734375 C-67.03515625 126.36605469 -66.26171875 125.70476562 -65.46484375 125.0234375 C-64.59730469 124.27835937 -63.72976562 123.53328125 -62.8359375 122.765625 C-58.82628207 119.54699003 -54.71192986 116.49633551 -50.53125 113.50390625 C-47.1749987 110.9325978 -47.1749987 110.9325978 -44.96484375 107.4609375 C-44.83708235 99.92989432 -47.14829741 92.11848955 -48.76757812 84.80859375 C-50.96814756 73.75131554 -48.75484751 65.50292365 -42.71484375 56.1484375 C-42.18689209 55.30015381 -41.65894043 54.45187012 -41.11499023 53.57788086 C-39.41654161 50.86021406 -37.69295744 48.15982038 -35.96484375 45.4609375 C-34.81445309 43.64624591 -33.66471446 41.83114081 -32.515625 40.015625 C-30.19180073 36.3510451 -27.85471361 32.69531292 -25.51171875 29.04296875 C-23.06263668 25.21136222 -20.66175427 21.35441207 -18.29296875 17.47265625 C-17.70249756 16.50642334 -17.11202637 15.54019043 -16.50366211 14.54467773 C-15.3766176 12.69464158 -14.25478919 10.84141481 -13.13891602 8.98461914 C-12.63416748 8.15696045 -12.12941895 7.32930176 -11.609375 6.4765625 C-11.16956299 5.74727539 -10.72975098 5.01798828 -10.27661133 4.26660156 C-7.44240349 0.36527993 -4.56598384 0.19354845 0 0 Z " fill="#4A0557" transform="translate(297.96484375,-0.4609375)"/>
<path d="M0 0 C5.57703255 5.57703255 8.35891317 18.30361087 8.6875 26.0625 C8.32324922 33.76098948 6.4651865 41.39047268 4.7800293 48.89282227 C4.44032104 50.43667603 4.44032104 50.43667603 4.09375 52.01171875 C3.88427734 52.92397217 3.67480469 53.83622559 3.45898438 54.77612305 C3.30751953 55.84000244 3.15605469 56.90388184 3 58 C2.88394409 58.66156601 2.76788818 59.32313202 2.64831543 60.00474548 C1.76010735 69.23330295 6.96082993 77.02788615 11.09375 84.91796875 C11.92546017 86.54490232 12.7549744 88.17296017 13.58239746 89.80207825 C15.75552999 94.07083386 17.95001548 98.32817539 20.15179443 102.58221436 C23.67912912 109.39847046 27.18742004 116.22417171 30.66926575 123.06377602 C31.8869125 125.44268914 33.12209174 127.81188937 34.35876465 130.18095398 C35.10776714 131.64393278 35.85605566 133.10727741 36.60351562 134.57104492 C36.94949295 135.22212219 37.29547028 135.87319946 37.65193176 136.54400635 C40.38355893 141.96489035 40.69969458 146.19340353 39.24072266 152.04559326 C38.8854248 153.06276428 38.53012695 154.0799353 38.1640625 155.12792969 C37.76364746 156.29314148 37.36323242 157.45835327 36.95068359 158.65887451 C36.29447021 160.52155975 36.29447021 160.52155975 35.625 162.421875 C35.17518348 163.73024879 34.72680325 165.03911717 34.27978516 166.34844971 C32.38855007 171.87936987 30.47117962 177.40111251 28.54492188 182.91992188 C27.36355621 186.30782066 26.19894127 189.70113023 25.04364014 193.09799957 C24.3916903 194.99822803 23.72074069 196.89190433 23.04931641 198.78533936 C20.02237637 207.68908043 17.88299079 216.01973824 22 224.875 C22.96826773 226.60151683 23.97132049 228.30878114 25 230 C25.60457031 231.00933594 26.20914063 232.01867187 26.83203125 233.05859375 C30.78729195 239.59060974 30.78729195 239.59060974 35.1171875 245.875 C41.79038626 255.34338767 43.30266352 265.12154727 45.31103516 276.34375 C46.07599757 280.40330955 46.93689607 284.43453986 47.82421875 288.46875 C48.06266258 289.55860199 48.06266258 289.55860199 48.30592346 290.67047119 C48.94037324 293.56816675 49.57548302 296.46567694 50.21975708 299.36120605 C52.10955775 307.88802694 53.55910972 316.26048332 54 325 C42.88366125 327.76606451 42.88366125 327.76606451 38 327 C35.9375 324.3125 35.9375 324.3125 34 321 C26.18382834 313.35752104 18.32996237 313.67514805 7.9453125 313.62890625 C6.68919159 313.61987778 5.43307068 313.6108493 4.1388855 313.60154724 C1.48778937 313.58707145 -1.16287663 313.57736996 -3.81396484 313.57446289 C-7.18872861 313.56908163 -10.56229403 313.53138498 -13.93671989 313.48571873 C-17.18430274 313.44859262 -20.43192114 313.44742501 -23.6796875 313.44140625 C-25.48008987 313.41210777 -25.48008987 313.41210777 -27.31686401 313.38221741 C-35.69748774 313.42697864 -41.95260041 314.95260041 -48 321 C-55.54792925 320.68286012 -62.72089734 318.27482182 -69.9375 316.1875 C-71.16146484 315.84396484 -72.38542969 315.50042969 -73.64648438 315.14648438 C-80.36544582 313.22006885 -86.70739613 311.04213512 -93 308 C-90.14399044 297.17411432 -86.716818 286.56744203 -83.21240234 275.93701172 C-82.48462913 273.72035894 -81.76331891 271.50157426 -81.04833984 269.28076172 C-80.00770113 266.04940482 -78.94751964 262.82505733 -77.8828125 259.6015625 C-77.56804962 258.61193512 -77.25328674 257.62230774 -76.9289856 256.60269165 C-74.13083102 248.25963353 -70.2368061 244.4867945 -62.66796875 239.96875 C-61.77480705 239.43115051 -61.77480705 239.43115051 -60.86360168 238.88269043 C-58.97559907 237.74823035 -57.08182208 236.62386929 -55.1875 235.5 C-53.92862431 234.74678217 -52.67015712 233.99288113 -51.41210938 233.23828125 C-50.79957306 232.87154297 -50.18703674 232.50480469 -49.55593872 232.12695312 C-48.34758338 231.40166115 -47.14074808 230.67383017 -45.93551636 229.94335938 C-43.44292986 228.43641595 -40.95313558 226.9757469 -38.36572266 225.63671875 C-34.52805812 223.62103443 -34.52805812 223.62103443 -32.13891602 220.1484375 C-31.30595448 216.14946189 -31.81606752 214.3259563 -33.8515625 210.71875 C-34.75376914 209.627038 -35.67992529 208.55482022 -36.625 207.5 C-37.11556885 206.91541016 -37.6061377 206.33082031 -38.11157227 205.72851562 C-39.16784245 204.4706014 -40.23304863 203.22014737 -41.30615234 201.9765625 C-43.66374909 199.22546662 -45.9472258 196.41680117 -48.22998047 193.60351562 C-49.3422203 192.23333284 -50.45949774 190.86721913 -51.58251953 189.50585938 C-53.07623845 187.68644933 -54.54132601 185.84755015 -56 184 C-57.20849609 182.49953125 -57.20849609 182.49953125 -58.44140625 180.96875 C-60.48100334 177.08380316 -59.91805372 175.2474688 -59 171 C-57.57641602 167.90478516 -57.57641602 167.90478516 -55.75390625 164.7890625 C-55.42684692 164.22282669 -55.0997876 163.65659088 -54.76281738 163.07319641 C-53.70667011 161.25070028 -52.63487104 159.43798805 -51.5625 157.625 C-50.83223272 156.37111714 -50.10298947 155.11663734 -49.37475586 153.86157227 C-47.26448607 150.23231046 -45.13437095 146.61514231 -43 143 C-42.4328125 142.03787598 -41.865625 141.07575195 -41.28125 140.08447266 C-40.7759375 139.22772949 -40.270625 138.37098633 -39.75 137.48828125 C-39.28779053 136.70437012 -38.82558105 135.92045898 -38.34936523 135.11279297 C-37.51460493 133.70172974 -36.67581014 132.29304248 -35.83227539 130.88720703 C-33.31365722 126.66568157 -31.87695393 123.52737823 -31.87402344 118.60791016 C-31.87021667 117.72334137 -31.86640991 116.83877258 -31.86248779 115.92739868 C-31.86146057 114.97424774 -31.86043335 114.0210968 -31.859375 113.0390625 C-31.84105011 111.02082202 -31.8214801 109.00259253 -31.80078125 106.984375 C-31.77179003 103.80221981 -31.74999935 100.62077251 -31.74951172 97.43847656 C-31.74617855 94.36719947 -31.71164014 91.29755607 -31.671875 88.2265625 C-31.6789447 87.27746002 -31.6860144 86.32835754 -31.69329834 85.35049438 C-31.6105359 80.85893098 -31.54278456 78.69978691 -28.72363281 75.06518555 C-27.82483398 74.38367432 -26.92603516 73.70216309 -26 73 C-25.29359375 72.43047607 -24.5871875 71.86095215 -23.859375 71.27416992 C-23.16328125 70.76474854 -22.4671875 70.25532715 -21.75 69.73046875 C-20.58984375 68.86131836 -20.58984375 68.86131836 -19.40625 67.97460938 C-17.80767485 66.78735591 -16.20351112 65.60758886 -14.59375 64.43554688 C-8.5517063 59.87883892 -4.41746976 55.25240927 -2 48 C-1.0807719 39.45569944 -2.71448138 31.41004355 -4.5769043 23.11938477 C-7.17141487 11.36723421 -7.17141487 11.36723421 -4.6875 6.34765625 C-4.130625 5.59355469 -3.57375 4.83945313 -3 4.0625 C-2.443125 3.29035156 -1.88625 2.51820312 -1.3125 1.72265625 C-0.879375 1.15417969 -0.44625 0.58570313 0 0 Z " fill="#9C2787" transform="translate(271,63)"/>
<path d="M0 0 C0.02578125 0.73863281 0.0515625 1.47726562 0.078125 2.23828125 C0.87713521 16.52966842 6.3007186 27.55343345 16 38 C61.67895949 76.9323381 145.64918593 80.1481651 203 76 C212.79432864 75.05881474 222.40332617 73.1182122 232 71 C232.88397461 70.81840332 233.76794922 70.63680664 234.67871094 70.44970703 C274.23007894 62.30953817 314.28478148 44.91402737 342 15 C342.33 14.34 342.66 13.68 343 13 C356.62207844 16.14355656 372.41276263 23.31848151 381 34.6875 C383.9363579 39.55084278 384.39260094 43.30728637 384 49 C380.96796333 57.90660773 373.56783813 63.08817744 365.5 67.125 C362.6902581 68.47340193 359.8568048 69.75465821 357 71 C356.35498535 71.28117676 355.7099707 71.56235352 355.04541016 71.85205078 C334.93276254 80.40238004 313.21306573 83.37186165 291.73242188 86.4609375 C288.57420867 86.91706876 285.42003126 87.39354995 282.265625 87.875 C238.25568828 94.26999421 193.46909707 93.45420881 149.11868078 93.32916474 C142.43220785 93.31148007 135.74583681 93.31222553 129.05934775 93.3177436 C121.66486474 93.32352206 114.27043307 93.31770143 106.87595749 93.30657005 C103.7995339 93.30204698 100.72314297 93.30099406 97.64671707 93.3031559 C71.49316926 93.3141077 45.28805262 92.62768382 19.31787109 89.28857422 C16.60628386 88.95098246 13.89165111 88.64883673 11.17578125 88.34765625 C-69.8860504 79.24142501 -69.8860504 79.24142501 -92.29296875 56.2109375 C-95.6063207 51.91950225 -96.58884014 47.72614463 -96.4296875 42.39453125 C-95.07829481 34.86358835 -88.93642472 29.38026403 -83.07421875 24.97265625 C-63.38008958 12.3353815 -40.20598078 7.63864007 -17.70703125 2.63671875 C-17.03467941 2.48595383 -16.36232758 2.3351889 -15.66960144 2.17985535 C-10.47938218 1.04152275 -5.32645837 0 0 0 Z " fill="#9C2787" transform="translate(112,403)"/>
<path d="M0 0 C2 1 2 1 3.26513672 4.2277832 C3.74435652 5.66623922 4.2152604 7.10748128 4.6796875 8.55078125 C4.93372345 9.31996384 5.1877594 10.08914642 5.44949341 10.88163757 C6.26504679 13.35633891 7.07017724 15.83429053 7.875 18.3125 C8.67281216 20.74338679 9.47267448 23.1735919 10.27276611 25.60372925 C10.79375711 27.19254642 11.31130082 28.78249816 11.82537842 30.37356567 C12.91775447 33.75077877 14.0357352 37.09599213 15.27441406 40.42333984 C19.86993207 52.8393363 17.79995621 63.4520737 14.77734375 76 C14.55175781 76.99 14.32617188 77.98 14.09375 79 C13.88427734 79.86625 13.67480469 80.7325 13.45898438 81.625 C12.10576701 91.5754664 12.94492591 98.67851729 17.640625 107.5625 C18.13073059 108.53719238 18.62083618 109.51188477 19.12579346 110.51611328 C20.72795634 113.68946787 22.36311885 116.8444344 24 120 C25.1226263 122.20331587 26.24304214 124.4077593 27.36132812 126.61328125 C29.65643034 131.13211669 31.95470927 135.64929922 34.2578125 140.1640625 C34.83047852 141.2871582 35.40314453 142.41025391 35.99316406 143.56738281 C37.18046869 145.88721371 38.37332769 148.20420894 39.57128906 150.51855469 C41.32977578 153.92082361 43.06520847 157.33401991 44.796875 160.75 C45.33624695 161.77915527 45.8756189 162.80831055 46.43133545 163.86865234 C50.52417924 172.02137286 49.9182923 176.26093221 47.14233398 184.82080078 C46.34852423 187.11401961 45.54946692 189.40542646 44.74609375 191.6953125 C44.1036394 193.56689729 43.46120966 195.43849093 42.8201685 197.31056023 C41.24884619 201.89570796 39.6664098 206.47684169 38.06274414 211.05078125 C37.16138613 213.62351865 36.27099692 216.19958335 35.39186096 218.77999878 C34.56773216 221.19759237 33.7283966 223.61007605 32.87120056 226.0161438 C29.98236773 234.57623413 27.73296189 244.15029507 31.25585938 252.89306641 C31.83142578 253.91835449 32.40699219 254.94364258 33 256 C33.61166016 257.0936084 34.22332031 258.1872168 34.85351562 259.31396484 C35.53091797 260.43496582 36.20832031 261.5559668 36.90625 262.7109375 C37.65779411 263.96860541 38.40908848 265.22642257 39.16015625 266.484375 C40.32849239 268.4301323 41.49949741 270.37417021 42.67529297 272.31542969 C43.82254035 274.2135589 44.95867242 276.1180127 46.09375 278.0234375 C46.77115234 279.14669434 47.44855469 280.26995117 48.14648438 281.42724609 C52.45155848 289.25951119 53.96500399 297.97977159 55.6640625 306.6640625 C55.90160248 307.85550873 56.13914246 309.04695496 56.38388062 310.27450562 C56.88232756 312.78012256 57.37801877 315.28628913 57.87109375 317.79296875 C58.62421419 321.62100578 59.38557267 325.44733166 60.1484375 329.2734375 C60.63329253 331.7160506 61.11768341 334.15875588 61.6015625 336.6015625 C61.82760162 337.74025787 62.05364075 338.87895325 62.28652954 340.05215454 C63.32839258 345.35658788 64.31109438 350.63768162 65 356 C53.48541001 359.06331545 41.80154029 360.51745832 30 362 C30.66 361.67 31.32 361.34 32 361 C31.89042969 360.45738525 31.78085937 359.91477051 31.66796875 359.35571289 C31.32093902 357.63449479 30.97468139 355.91312096 30.62890625 354.19165039 C30.2008044 352.06161104 29.77105258 349.93190278 29.33984375 347.80249023 C28.03244987 341.30526059 26.76939585 334.8031342 25.56616211 328.28590393 C24.88904708 324.62460463 24.20054599 320.96547744 23.51171875 317.30636597 C23.17299005 315.4900828 22.83957621 313.67279968 22.51171875 311.85452271 C20.02166237 297.82188488 20.02166237 297.82188488 14 285 C13.59152832 284.31107666 13.18305664 283.62215332 12.76220703 282.91235352 C11.56153471 280.9187979 10.32079534 278.95759488 9.0625 277 C8.18951159 275.62146883 7.31711485 274.2425628 6.4453125 272.86328125 C6.02797852 272.20537598 5.61064453 271.5474707 5.18066406 270.86962891 C3.57345702 268.32455208 1.99777822 265.76158218 0.4375 263.1875 C-0.01753906 262.43855469 -0.47257812 261.68960937 -0.94140625 260.91796875 C-4.21820391 254.98104014 -3.76087945 248.17171978 -2.21972656 241.74743652 C-1.1000913 238.14888631 0.11544443 234.59885652 1.375 231.046875 C1.82517484 229.7347571 2.2735462 228.42201922 2.72021484 227.10870361 C3.88992935 223.68052688 5.07757486 220.2588907 6.27124023 216.83898926 C8.18455385 211.35447739 10.07959274 205.8638577 11.95635986 200.36673737 C12.61161215 198.46081602 13.28100699 196.55977561 13.95068359 194.65887451 C14.35109863 193.49366272 14.75151367 192.32845093 15.1640625 191.12792969 C15.51936035 190.11075867 15.8746582 189.09358765 16.24072266 188.04559326 C17.93175328 181.2625758 16.81679452 176.61795234 13.60351562 170.57104492 C13.06219246 169.5109597 13.06219246 169.5109597 12.50993347 168.42945862 C11.72868331 166.90349251 10.94106353 165.38077397 10.14775085 163.86104393 C8.89007409 161.44945148 7.65150633 159.0288901 6.41760254 156.60505676 C2.90727749 149.71854571 -0.63895639 142.85068648 -4.19189453 135.98608398 C-6.36800014 131.77849366 -8.52417627 127.56115042 -10.66926575 123.33767128 C-11.4875462 121.73700799 -12.31360488 120.14029496 -13.14775085 118.54784203 C-21.50681813 102.58947787 -21.50681813 102.58947787 -20 94 C-19.84853516 92.93612061 -19.69707031 91.87224121 -19.54101562 90.77612305 C-19.33154297 89.86386963 -19.12207031 88.95161621 -18.90625 88.01171875 C-18.67969727 86.98272461 -18.45314453 85.95373047 -18.21972656 84.89355469 C-17.9822168 83.83555664 -17.74470703 82.77755859 -17.5 81.6875 C-13.91190878 66.30644291 -13.91190878 66.30644291 -17 51.2265625 C-22.7534622 37.79849718 -22.7534622 37.79849718 -21.31494141 32.45556641 C-18.83949493 27.23719717 -15.35982452 22.7751384 -11.76416016 18.28417969 C-8.95527688 14.64732501 -6.62371857 10.74106377 -4.25 6.8125 C-3.42397068 5.48437138 -2.59606215 4.15740826 -1.765625 2.83203125 C-1.18296875 1.89746094 -0.6003125 0.96289062 0 0 Z " fill="#620773" transform="translate(293,27)"/>
<path d="M0 0 C-0.2165625 0.64324219 -0.433125 1.28648437 -0.65625 1.94921875 C-3.86104778 12.3499745 -4.82018612 21.86535793 0.22265625 31.78125 C4.91231229 37.63558984 11.46760839 40.31563998 18.3125 42.9375 C19.18769287 43.27885986 20.06288574 43.62021973 20.96459961 43.97192383 C31.17464031 47.90806992 41.47866903 51.80061242 52.171875 54.19921875 C53.03031006 54.39813721 53.88874512 54.59705566 54.77319336 54.80200195 C56.41601911 55.17270785 58.06545822 55.51566923 59.72094727 55.82495117 C63.09019291 56.584274 65.28025113 57.14007872 67.54443359 59.84521484 C68.85546875 61.984375 68.85546875 61.984375 69.91870117 64.06152344 C72.53752725 68.75637082 76.99753896 71.34174426 82 73 C84.77493518 73.31249337 84.77493518 73.31249337 87.7331543 73.29052734 C88.86170334 73.30328705 89.99025238 73.31604675 91.15299988 73.32919312 C92.36450211 73.33141876 93.57600433 73.33364441 94.82421875 73.3359375 C96.70908745 73.3459227 96.70908745 73.3459227 98.6320343 73.35610962 C101.29088506 73.36623088 103.94932693 73.37179279 106.6081543 73.37060547 C109.98944014 73.37040303 113.36987839 73.39763447 116.75096416 73.43214989 C120.00451572 73.45995766 123.25806468 73.45857356 126.51171875 73.4609375 C127.71309982 73.47530853 128.9144809 73.48967957 130.15226746 73.50448608 C137.35566297 73.4657515 143.72004151 72.78868104 150 69 C151.63971634 67.25275028 151.63971634 67.25275028 152.9375 65.4375 C157.12393872 60.80883184 162.46794332 60.80332549 168.34033203 60.05126953 C181.24796766 58.39820792 193.37492148 54.35458046 205.625 50.0625 C206.53741455 49.75094971 207.4498291 49.43939941 208.38989258 49.1184082 C215.8604492 46.41617479 222.65541264 43.09376267 226.4375 35.8125 C230.06137718 27.57346086 229.58713474 20.52232619 227 12 C226.55433784 8.67467462 226.25574425 5.3448656 226 2 C280.37336728 7.34166511 280.37336728 7.34166511 303 18 C295.10149436 37.67531944 265.16771035 51.41560752 247.0546875 59.15234375 C242.07747493 61.21292342 237.04746525 63.1195524 232 65 C231.20013672 65.30534668 230.40027344 65.61069336 229.57617188 65.92529297 C215.66784852 71.21576609 201.54042589 74.88827124 187 78 C186.05237793 78.21317871 185.10475586 78.42635742 184.12841797 78.64599609 C126.4425599 91.38314669 37.12908931 83.59943893 -13 52 C-25.1752859 44.03194822 -33.99268745 34.41901262 -39.25 20.75 C-40.30261693 15.48691535 -40.1580784 10.3483193 -40 5 C-37.07226385 3.53613193 -33.97611687 3.40768795 -30.76171875 3.02734375 C-30.04393753 2.93997452 -29.32615631 2.85260529 -28.58662415 2.7625885 C-27.06618689 2.57844158 -25.54552349 2.39615384 -24.0246582 2.21557617 C-21.70655555 1.93976724 -19.38939994 1.65686316 -17.07226562 1.37304688 C-15.59380145 1.19488498 -14.11528731 1.01713726 -12.63671875 0.83984375 C-11.94696457 0.75548569 -11.25721039 0.67112762 -10.54655457 0.58421326 C-7.01056268 0.16858423 -3.56056561 -0.0923985 0 0 Z " fill="#620773" transform="translate(152,398)"/>
<path d="M0 0 C1.73618591 -0.00006042 1.73618591 -0.00006042 3.50744629 -0.00012207 C5.95179684 0.00523347 8.39614694 0.02281732 10.84033203 0.05175781 C14.58028833 0.09359939 18.31844293 0.09282635 22.05859375 0.0859375 C24.43490834 0.09643055 26.81121365 0.10936926 29.1875 0.125 C30.3053186 0.12520142 31.42313721 0.12540283 32.5748291 0.12561035 C34.14170471 0.14947815 34.14170471 0.14947815 35.74023438 0.17382812 C37.11326721 0.18645691 37.11326721 0.18645691 38.51403809 0.19934082 C41.63433226 0.676399 43.54257635 1.76301627 46.09375 3.59375 C47.34331796 6.09288591 47.23417304 7.81015175 47.25488281 10.60668945 C47.26449036 11.65149979 47.2740979 12.69631012 47.28399658 13.77278137 C47.28824646 14.90608383 47.29249634 16.03938629 47.296875 17.20703125 C47.30257507 18.36873337 47.30827515 19.53043549 47.31414795 20.7273407 C47.32360796 23.18955573 47.33013589 25.65178348 47.33398438 28.11401367 C47.3436831 31.88027073 47.37469508 35.64598065 47.40625 39.41210938 C47.41278055 41.80208009 47.41803082 44.19205471 47.421875 46.58203125 C47.4342218 47.70926102 47.4465686 48.83649078 47.45928955 49.99787903 C47.45628845 51.05214584 47.45328735 52.10641266 47.45019531 53.19262695 C47.45566376 54.57923271 47.45566376 54.57923271 47.46124268 55.99385071 C47.01274027 59.16686932 46.00648083 61.03811993 44.09375 63.59375 C41.10007982 64.59164006 39.07986991 64.731735 35.95141602 64.75488281 C34.37947227 64.76929413 34.37947227 64.76929413 32.77577209 64.78399658 C31.64449387 64.78824646 30.51321564 64.79249634 29.34765625 64.796875 C28.18499741 64.80257507 27.02233856 64.80827515 25.82444763 64.81414795 C23.36401276 64.8235985 20.90356524 64.83013215 18.44311523 64.83398438 C14.67474403 64.84370231 10.90691532 64.87473101 7.13867188 64.90625 C4.75000324 64.9127788 2.36133071 64.91802975 -0.02734375 64.921875 C-1.15659775 64.9342218 -2.28585175 64.9465686 -3.44932556 64.95928955 C-4.50044022 64.95628845 -5.55155487 64.95328735 -6.63452148 64.95019531 C-8.01993385 64.95566376 -8.01993385 64.95566376 -9.43333435 64.96124268 C-12.40517716 64.51960591 -13.75266834 63.66308457 -15.90625 61.59375 C-16.89874837 58.6162549 -17.05561356 56.57901066 -17.09912109 53.46728516 C-17.12321548 51.90018295 -17.12321548 51.90018295 -17.14779663 50.30142212 C-17.19227343 45.53363736 -17.23329304 40.76599045 -17.25634766 35.99804688 C-17.27292624 33.48200239 -17.30024082 30.96600536 -17.33837891 28.45019531 C-17.39307216 24.82331909 -17.41500922 21.19754524 -17.4296875 17.5703125 C-17.45235687 16.44621979 -17.47502625 15.32212708 -17.49838257 14.16397095 C-17.48584185 9.53919286 -17.3915723 6.46515725 -15.11767578 2.38232422 C-10.1738313 -0.37110475 -5.56894735 -0.08168084 0 0 Z " fill="#4A0557" transform="translate(248.90625,391.40625)"/>
<path d="M0 0 C0.66 -0.0103125 1.32 -0.020625 2 -0.03125 C5.02155892 0.77135159 6.12780064 2.00373419 8 4.5 C8.63729581 7.14063377 9.09157711 9.57589249 9.4375 12.25 C10.41192511 18.45635991 11.59139832 23.74193599 16 28.5 C19.70628382 30.97085588 23.20334162 31.62162654 27.50390625 32.62109375 C30 33.5 30 33.5 32 36.5 C32.66546112 43.48734177 32.66546112 43.48734177 30.5625 46.6875 C28.30649913 48.28320793 26.13353282 49.48524242 23.6875 50.75 C17.07267734 54.28663786 12.4279299 59.37455357 10 66.5 C9.2378709 69.60836948 8.55394825 72.72713127 7.87890625 75.85546875 C7 78.5 7 78.5 4 80.5 C-3.10099573 81.17628531 -3.10099573 81.17628531 -6.16015625 78.875 C-8.41625449 75.96266936 -8.86004523 73.73737627 -9.5 70.125 C-11.30246195 61.5441306 -14.97401397 56.56143848 -22 51.5 C-24.36086382 50.11551928 -26.7402473 48.81851832 -29.1796875 47.578125 C-31 46.5 -31 46.5 -32 44.5 C-32.58420999 37.25579614 -32.58420999 37.25579614 -30.32421875 34.33203125 C-27.6715473 32.24110199 -25.79085108 31.71795798 -22.5 31.0625 C-18.97030485 30.18007621 -17.27386758 29.73963413 -14.5 27.3125 C-10.94615271 20.64903633 -9.56360681 14.69660293 -8.72265625 7.234375 C-7.50222098 2.61651182 -4.88501785 -0.0763284 0 0 Z " fill="#4A0557" transform="translate(88,167.5)"/>
<path d="M0 0 C0.66 -0.0103125 1.32 -0.020625 2 -0.03125 C5.02155892 0.77135159 6.12780064 2.00373419 8 4.5 C8.63729581 7.14063377 9.09157711 9.57589249 9.4375 12.25 C10.41192511 18.45635991 11.59139832 23.74193599 16 28.5 C19.70628382 30.97085588 23.20334162 31.62162654 27.50390625 32.62109375 C30 33.5 30 33.5 32 36.5 C32.66546112 43.48734177 32.66546112 43.48734177 30.5625 46.6875 C28.30649913 48.28320793 26.13353282 49.48524242 23.6875 50.75 C17.07267734 54.28663786 12.4279299 59.37455357 10 66.5 C9.2378709 69.60836948 8.55394825 72.72713127 7.87890625 75.85546875 C7 78.5 7 78.5 4 80.5 C-3.10099573 81.17628531 -3.10099573 81.17628531 -6.16015625 78.875 C-8.41625449 75.96266936 -8.86004523 73.73737627 -9.5 70.125 C-11.30246195 61.5441306 -14.97401397 56.56143848 -22 51.5 C-24.36086382 50.11551928 -26.7402473 48.81851832 -29.1796875 47.578125 C-31 46.5 -31 46.5 -32 44.5 C-32.58420999 37.25579614 -32.58420999 37.25579614 -30.32421875 34.33203125 C-27.6715473 32.24110199 -25.79085108 31.71795798 -22.5 31.0625 C-18.97030485 30.18007621 -17.27386758 29.73963413 -14.5 27.3125 C-10.94615271 20.64903633 -9.56360681 14.69660293 -8.72265625 7.234375 C-7.50222098 2.61651182 -4.88501785 -0.0763284 0 0 Z " fill="#4A0557" transform="translate(424,103.5)"/>
<path d="M0 0 C0.66 -0.0103125 1.32 -0.020625 2 -0.03125 C5.02155892 0.77135159 6.12780064 2.00373419 8 4.5 C8.63729581 7.14063377 9.09157711 9.57589249 9.4375 12.25 C10.41192511 18.45635991 11.59139832 23.74193599 16 28.5 C19.70628382 30.97085588 23.20334162 31.62162654 27.50390625 32.62109375 C30 33.5 30 33.5 32 36.5 C32.66546112 43.48734177 32.66546112 43.48734177 30.5625 46.6875 C28.30649913 48.28320793 26.13353282 49.48524242 23.6875 50.75 C17.07267734 54.28663786 12.4279299 59.37455357 10 66.5 C9.2378709 69.60836948 8.55394825 72.72713127 7.87890625 75.85546875 C7 78.5 7 78.5 4 80.5 C-3.10099573 81.17628531 -3.10099573 81.17628531 -6.16015625 78.875 C-8.41625449 75.96266936 -8.86004523 73.73737627 -9.5 70.125 C-11.30246195 61.5441306 -14.97401397 56.56143848 -22 51.5 C-24.36086382 50.11551928 -26.7402473 48.81851832 -29.1796875 47.578125 C-31 46.5 -31 46.5 -32 44.5 C-32.58420999 37.25579614 -32.58420999 37.25579614 -30.32421875 34.33203125 C-27.6715473 32.24110199 -25.79085108 31.71795798 -22.5 31.0625 C-18.97030485 30.18007621 -17.27386758 29.73963413 -14.5 27.3125 C-10.94615271 20.64903633 -9.56360681 14.69660293 -8.72265625 7.234375 C-7.50222098 2.61651182 -4.88501785 -0.0763284 0 0 Z " fill="#4A0557" transform="translate(176,23.5)"/>
<path d="M0 0 C6.86600962 0.65485063 13.19877193 2.79323163 19.75 4.875 C21.99424049 5.58247997 24.23902813 6.28822677 26.484375 6.9921875 C27.96502441 7.46180908 27.96502441 7.46180908 29.47558594 7.94091797 C34.28989814 9.38761278 39.15015157 10.67731406 44 12 C44 25.2 44 38.4 44 52 C38.38647305 51.29830913 34.27599159 50.64013563 29.078125 48.92578125 C28.45202332 48.71946579 27.82592163 48.51315033 27.18084717 48.30058289 C25.86541698 47.86468066 24.55123179 47.42500448 23.23828125 46.98168945 C21.27206005 46.31992468 19.30066348 45.67585458 17.328125 45.03320312 C-4.02233555 37.96649668 -4.02233555 37.96649668 -8 32 C-8.81703314 24.57861562 -6.4565165 18.43799931 -4 11.5 C-3.6184375 10.39140625 -3.236875 9.2828125 -2.84375 8.140625 C-1.90667494 5.42310733 -0.95856826 2.70999484 0 0 Z " fill="#E9D1E5" transform="translate(172,387)"/>
<path d="M0 0 C0.67684298 3.03949302 1.33961872 6.08189165 2 9.125 C2.19078125 9.9809375 2.3815625 10.836875 2.578125 11.71875 C5.03650323 23.13264894 5.03650323 23.13264894 2.5234375 27.66015625 C-0.81795442 30.7584438 -4.1050048 31.98152171 -8.375 33.4375 C-9.19919434 33.72898926 -10.02338867 34.02047852 -10.87255859 34.32080078 C-17.3888396 36.5708608 -23.98360331 38.53067001 -30.625 40.375 C-31.52395996 40.62564209 -32.42291992 40.87628418 -33.34912109 41.13452148 C-34.64970459 41.48172241 -34.64970459 41.48172241 -35.9765625 41.8359375 C-36.73018066 42.03751465 -37.48379883 42.2390918 -38.26025391 42.44677734 C-42.12951007 43.22807608 -46.07679317 43.56408813 -50 44 C-50 31.46 -50 18.92 -50 6 C-47.03 5.5875 -44.06 5.175 -41 4.75 C-34.7952778 3.88292985 -28.60972864 2.9512961 -22.4375 1.875 C-21.36371094 1.6884082 -20.28992188 1.50181641 -19.18359375 1.30957031 C-17.09105266 0.94177091 -14.99983571 0.56634151 -12.91015625 0.18261719 C-11.94980469 0.01407227 -10.98945313 -0.15447266 -10 -0.328125 C-9.154375 -0.4818457 -8.30875 -0.63556641 -7.4375 -0.79394531 C-4.75749665 -1.02050008 -2.59999357 -0.64419484 0 0 Z " fill="#E9D1E5" transform="translate(362,400)"/>
<path d="M0 0 C1.73618591 -0.00006042 1.73618591 -0.00006042 3.50744629 -0.00012207 C5.95179684 0.00523347 8.39614694 0.02281732 10.84033203 0.05175781 C14.58028833 0.09359939 18.31844293 0.09282635 22.05859375 0.0859375 C24.43490834 0.09643055 26.81121365 0.10936926 29.1875 0.125 C30.3053186 0.12520142 31.42313721 0.12540283 32.5748291 0.12561035 C34.14170471 0.14947815 34.14170471 0.14947815 35.74023438 0.17382812 C37.11326721 0.18645691 37.11326721 0.18645691 38.51403809 0.19934082 C41.63433226 0.676399 43.54257635 1.76301627 46.09375 3.59375 C47.34331796 6.09288591 47.23417304 7.81015175 47.25488281 10.60668945 C47.26449036 11.65149979 47.2740979 12.69631012 47.28399658 13.77278137 C47.28824646 14.90608383 47.29249634 16.03938629 47.296875 17.20703125 C47.30257507 18.36873337 47.30827515 19.53043549 47.31414795 20.7273407 C47.32360796 23.18955573 47.33013589 25.65178348 47.33398438 28.11401367 C47.3436831 31.88027073 47.37469508 35.64598065 47.40625 39.41210938 C47.41278055 41.80208009 47.41803082 44.19205471 47.421875 46.58203125 C47.4342218 47.70926102 47.4465686 48.83649078 47.45928955 49.99787903 C47.45628845 51.05214584 47.45328735 52.10641266 47.45019531 53.19262695 C47.45566376 54.57923271 47.45566376 54.57923271 47.46124268 55.99385071 C47.01274027 59.16686932 46.00648083 61.03811993 44.09375 63.59375 C41.10007982 64.59164006 39.07986991 64.731735 35.95141602 64.75488281 C34.37947227 64.76929413 34.37947227 64.76929413 32.77577209 64.78399658 C31.64449387 64.78824646 30.51321564 64.79249634 29.34765625 64.796875 C28.18499741 64.80257507 27.02233856 64.80827515 25.82444763 64.81414795 C23.36401276 64.8235985 20.90356524 64.83013215 18.44311523 64.83398438 C14.67474403 64.84370231 10.90691532 64.87473101 7.13867188 64.90625 C4.75000324 64.9127788 2.36133071 64.91802975 -0.02734375 64.921875 C-1.15659775 64.9342218 -2.28585175 64.9465686 -3.44932556 64.95928955 C-4.50044022 64.95628845 -5.55155487 64.95328735 -6.63452148 64.95019531 C-8.01993385 64.95566376 -8.01993385 64.95566376 -9.43333435 64.96124268 C-12.40517716 64.51960591 -13.75266834 63.66308457 -15.90625 61.59375 C-16.89874837 58.6162549 -17.05561356 56.57901066 -17.09912109 53.46728516 C-17.12321548 51.90018295 -17.12321548 51.90018295 -17.14779663 50.30142212 C-17.19227343 45.53363736 -17.23329304 40.76599045 -17.25634766 35.99804688 C-17.27292624 33.48200239 -17.30024082 30.96600536 -17.33837891 28.45019531 C-17.39307216 24.82331909 -17.41500922 21.19754524 -17.4296875 17.5703125 C-17.45235687 16.44621979 -17.47502625 15.32212708 -17.49838257 14.16397095 C-17.48584185 9.53919286 -17.3915723 6.46515725 -15.11767578 2.38232422 C-10.1738313 -0.37110475 -5.56894735 -0.08168084 0 0 Z M-6.89892578 10.60107422 C-9.46437755 14.42585015 -9.59510468 17.54596959 -9.5 22 C-9.50004028 22.80232056 -9.50008057 23.60464111 -9.50012207 24.43127441 C-9.49477641 26.12239443 -9.47723422 27.8135146 -9.44824219 29.50439453 C-9.40637994 32.08573724 -9.40717685 34.66446867 -9.4140625 37.24609375 C-9.40356904 38.89324721 -9.39063008 40.54038728 -9.375 42.1875 C-9.37479858 42.95533813 -9.37459717 43.72317627 -9.37438965 44.51428223 C-9.27526692 49.02599744 -8.71277434 52.01087988 -5.90625 55.59375 C-2.72611937 57.18381531 0.71345657 56.77792077 4.20703125 56.796875 C5.01359665 56.80257507 5.82016205 56.80827515 6.65116882 56.81414795 C8.36012458 56.82360195 10.0690986 56.83013352 11.77807617 56.83398438 C14.38558041 56.8436732 16.99229078 56.874685 19.59960938 56.90625 C21.26041199 56.91278185 22.92122024 56.91803161 24.58203125 56.921875 C25.35928055 56.9342218 26.13652985 56.9465686 26.93733215 56.95928955 C31.48490483 56.94069428 34.53271364 56.51725081 38.09375 53.59375 C39.3503127 49.8240619 39.27550362 46.27657257 39.296875 42.34765625 C39.30542511 41.13637306 39.30542511 41.13637306 39.31414795 39.90061951 C39.32358834 38.19344388 39.33012812 36.48625011 39.33398438 34.77905273 C39.3437009 32.16943625 39.3747369 29.56060393 39.40625 26.95117188 C39.41277933 25.29167134 39.41803007 23.63216518 39.421875 21.97265625 C39.4342218 21.19338272 39.4465686 20.41410919 39.45928955 19.61122131 C39.44598287 16.37097836 39.31914875 14.00991205 37.76074219 11.13256836 C32.93684317 6.67957546 23.57245058 8.2872039 17.33398438 8.24365234 C15.59393955 8.22708358 13.85396305 8.19978111 12.11425781 8.16162109 C9.59925214 8.10678119 7.08583593 8.0849714 4.5703125 8.0703125 C3.79620026 8.04764313 3.02208801 8.02497375 2.22451782 8.00161743 C-1.58853392 8.01648979 -3.71125434 8.46295751 -6.89892578 10.60107422 Z " fill="#AF9DAC" transform="translate(248.90625,391.40625)"/>
<path d="M0 0 C5.08769853 -0.30272295 7.91597782 1.04531926 11.78515625 4.25390625 C15.17249411 11.02858197 12.56375071 20.6466133 11.09765625 27.75390625 C10.87493042 28.91986328 10.87493042 28.91986328 10.64770508 30.109375 C9.80718027 33.87755665 9.14052362 35.87166235 6.4609375 38.75390625 C1.1299301 41.74238339 -4.43977386 40.89292622 -10.234375 39.55859375 C-14.62151222 38.16081777 -17.61201965 36.82932926 -20.96484375 33.62890625 C-24.10729873 25.14427779 -20.44227845 15.31151533 -17.21484375 7.25390625 C-14.45518058 3.11441149 -12.09544844 2.0194548 -7.40234375 0.94140625 C-4.93850971 0.56432615 -2.47579315 0.28382108 0 0 Z " fill="#C37CB7" transform="translate(232.21484375,316.74609375)"/>
<path d="M0 0 C2.0625 1.5625 2.0625 1.5625 3 4 C3.1247632 6.81284301 2.99382159 9.3552398 2 12 C-2.65565685 16.09265655 -8.51649125 17.39421675 -14.3125 19.25 C-15.42818359 19.62640625 -16.54386719 20.0028125 -17.69335938 20.390625 C-28.19577126 23.77729487 -28.19577126 23.77729487 -34 22 C-36.79612568 19.02911646 -37.00789609 17.45797334 -36.9375 13.375 C-35.86411941 9.51082986 -35.28595813 9.04826133 -32 7 C-28.16805151 5.34801757 -24.20453071 4.07766019 -20.25 2.75 C-18.66058594 2.18539063 -18.66058594 2.18539063 -17.0390625 1.609375 C-10.86009151 -0.47583606 -6.38845779 -1.58041987 0 0 Z " fill="#4B0558" transform="translate(285,257)"/>
<path d="M0 0 C4.08055983 1.33724034 6.68026916 4.27425505 9.5793457 7.3269043 C10.20260742 7.93147461 10.82586914 8.53604492 11.46801758 9.15893555 C15.36266296 13.13410135 17.08563784 15.91249449 17.1418457 21.7019043 C16.2043457 24.5769043 16.2043457 24.5769043 14.1418457 26.7019043 C9.45478369 28.29073888 9.45478369 28.29073888 6.1418457 27.7019043 C3.02211768 25.80110289 0.67171434 23.31463954 -1.8581543 20.7019043 C-2.59936523 20.0522168 -3.34057617 19.4025293 -4.10424805 18.7331543 C-7.52404785 15.66082079 -10.24933879 13.13836513 -11.1706543 8.5144043 C-10.8581543 4.7019043 -10.8581543 4.7019043 -8.9206543 1.6394043 C-5.5611552 -0.48599309 -3.87669316 -0.60608019 0 0 Z " fill="#4C0558" transform="translate(258.858154296875,192.298095703125)"/>
<path d="M0 0 C5.28 0 10.56 0 16 0 C16 5.28 16 10.56 16 16 C10.72 16 5.44 16 0 16 C0 10.72 0 5.44 0 0 Z " fill="#9D2888" transform="translate(256,416)"/>
<path d="M0 0 C3.39914975 1.13304992 4.05254451 2.12518475 6 5 C4.95125002 7.62187494 4.35068687 8.79371361 1.875 10.25 C1.25625 10.4975 0.6375 10.745 0 11 C-1.32 9.68 -2.64 8.36 -4 7 C-2.79618552 4.50638429 -1.54571278 2.31856917 0 0 Z " fill="#E4CBE1" transform="translate(87,204)"/>
<path d="M0 0 C3.39914975 1.13304992 4.05254451 2.12518475 6 5 C4.95125002 7.62187494 4.35068687 8.79371361 1.875 10.25 C1.25625 10.4975 0.6375 10.745 0 11 C-1.32 9.68 -2.64 8.36 -4 7 C-2.79618552 4.50638429 -1.54571278 2.31856917 0 0 Z " fill="#E4CBE1" transform="translate(423,140)"/>
<path d="M0 0 C3.39914975 1.13304992 4.05254451 2.12518475 6 5 C4.95125002 7.62187494 4.35068687 8.79371361 1.875 10.25 C1.25625 10.4975 0.6375 10.745 0 11 C-1.32 9.68 -2.64 8.36 -4 7 C-2.79618552 4.50638429 -1.54571278 2.31856917 0 0 Z " fill="#E4CBE1" transform="translate(175,60)"/>
</svg>
